<svg width="1600" height="600" fill="none" xmlns="http://www.w3.org/2000/svg"><path fill-rule="evenodd" clip-rule="evenodd" d="M0 0h1600v600H0V0z" fill="#FFF9F5"/><mask id="a" maskUnits="userSpaceOnUse" x="0" y="0" width="1600" height="600"><path fill-rule="evenodd" clip-rule="evenodd" d="M0 0h1600v600H0V0z" fill="#fff"/></mask><g mask="url(#a)"><path d="M1095.39 639.616c143.1 221.991 53.73 519.384-188.014 625.614L-1543 2342 448.183 552.912c196.441-176.499 504.103-135.286 647.207 86.704z" fill="url(#paint0_linear)"/><path d="M431.718-100.449C637.065 65.672 645.102 376.147 448.619 552.67L-1543 2342-210.304 19.622C-78.826-209.492 226.371-266.57 431.718-100.449z" fill="url(#paint1_linear)"/></g><defs><linearGradient id="paint0_linear" x1="454.5" y1="484" x2="849.05" y2="927.778" gradientUnits="userSpaceOnUse"><stop stop-color="#FFDDBF" stop-opacity="0"/><stop offset="1" stop-color="#FFDDBF" stop-opacity=".32"/></linearGradient><linearGradient id="paint1_linear" x1="-128.5" y1="20" x2="452.162" y2="577.332" gradientUnits="userSpaceOnUse"><stop stop-color="#FFDDBF" stop-opacity=".24"/><stop offset="1" stop-color="#FBF4EE" stop-opacity=".48"/></linearGradient></defs></svg>